<svg width="941" height="200" viewBox="0 0 941 200" fill="none" xmlns="http://www.w3.org/2000/svg">
<path d="M934.906 133.643C931.989 133.643 929.621 136.011 929.621 138.927C929.621 141.844 931.989 144.212 934.906 144.212C937.821 144.212 940.191 141.844 940.191 138.927C940.19 136.011 937.821 133.643 934.906 133.643ZM934.906 143.374C932.447 143.374 930.458 141.374 930.458 138.927C930.458 136.469 932.459 134.481 934.906 134.481C937.364 134.481 939.364 136.481 939.364 138.927C939.364 141.374 937.364 143.374 934.906 143.374ZM936.626 138.022C936.626 137.061 935.944 136.492 934.939 136.492H933.251V141.307H934.078V139.564H934.983L935.854 141.307H936.748L935.787 139.386C936.302 139.151 936.626 138.681 936.626 138.022ZM934.906 138.816H934.09V137.218H934.906C935.464 137.218 935.799 137.497 935.799 138.011C935.799 138.536 935.453 138.816 934.906 138.816ZM298.112 80.1563V67.3742H278.514V143.419H298.112V97.8214C298.112 89.5644 303.408 85.5083 311.665 85.5083H322.391V67.3745H313.229C306.056 67.3742 299.821 71.1172 298.112 80.1563ZM340.749 37.2961C334.045 37.2961 328.905 42.5923 328.905 49.2962C328.905 55.8436 334.045 61.1398 340.749 61.1398C347.453 61.1398 352.592 55.8436 352.592 49.2962C352.592 42.592 347.453 37.2961 340.749 37.2961ZM330.972 143.419H350.525V67.3742H330.972V143.419ZM443.665 105.397C443.665 127.106 426.067 144.704 404.357 144.704C395.597 144.704 387.653 141.833 381.285 136.983V165.743H361.732V67.3742H381.285V73.8098C387.653 68.9607 395.597 66.0892 404.357 66.0892C426.067 66.0892 443.665 83.6871 443.665 105.397ZM423.989 105.397C423.989 93.6089 414.425 84.0445 402.637 84.0445C390.849 84.0445 381.285 93.6089 381.285 105.397C381.285 117.184 390.849 126.749 402.637 126.749C414.425 126.749 423.989 117.196 423.989 105.397ZM783.509 98.7263L772.101 95.5977C764.593 93.6423 761.676 91.3407 761.676 87.3743C761.676 83.5083 765.788 80.8044 771.665 80.8044C777.263 80.8044 781.654 84.4692 781.654 89.1618V89.5974H799.677V89.1618C799.677 75.3627 788.425 66.089 771.665 66.089C755.073 66.089 743.017 75.3515 743.017 88.1224C743.017 98.0555 749.598 105.541 761.084 108.648L772.012 111.631C780.313 113.933 783.397 116.48 783.397 121.05C783.397 125.866 778.939 129.106 772.302 129.106C765.385 129.106 760.726 124.726 760.726 118.223V117.787H741.598V118.223C741.598 133.821 754.157 144.726 772.146 144.726C789.475 144.726 802.056 134.078 802.056 119.419C802.056 112.223 798.838 102.816 783.509 98.7263ZM513.028 67.3742H532.581V143.419H513.028V136.983C506.659 141.832 498.715 144.704 489.955 144.704C468.246 144.704 450.648 127.106 450.648 105.396C450.648 83.6865 468.246 66.089 489.955 66.089C498.715 66.089 506.66 68.9605 513.028 73.8095V67.3742ZM513.028 105.397C513.028 93.5977 503.464 84.0445 491.676 84.0445C479.888 84.0445 470.324 93.6089 470.324 105.397C470.324 117.184 479.888 126.749 491.676 126.749C503.475 126.749 513.028 117.196 513.028 105.397ZM603.185 40.3128H622.738V143.43H603.185V136.994C596.816 141.844 588.872 144.715 580.112 144.715C558.402 144.715 540.804 127.117 540.804 105.407C540.804 83.6977 558.402 66.1002 580.112 66.1002C588.872 66.1002 596.816 68.9717 603.185 73.8207V40.3128ZM603.185 105.397C603.185 93.6089 593.62 84.0445 581.832 84.0445C570.045 84.0445 560.48 93.6089 560.48 105.397C560.48 117.184 570.034 126.749 581.832 126.749C593.62 126.749 603.185 117.196 603.185 105.397ZM713.52 143.419H733.073V67.3742H713.52V143.419ZM723.296 37.2961C716.592 37.2961 711.453 42.5923 711.453 49.2962C711.453 55.8436 716.592 61.1398 723.296 61.1398C730 61.1398 735.14 55.8436 735.14 49.2962C735.14 42.592 730 37.2961 723.296 37.2961ZM886.57 105.397C886.57 127.106 868.973 144.704 847.263 144.704C825.553 144.704 807.956 127.106 807.956 105.397C807.956 83.6868 825.553 66.0892 847.263 66.0892C868.973 66.0892 886.57 83.6871 886.57 105.397ZM868.615 105.397C868.615 93.6089 859.051 84.0445 847.263 84.0445C835.475 84.0445 825.911 93.6089 825.911 105.397C825.911 117.184 835.464 126.749 847.263 126.749C859.05 126.749 868.615 117.196 868.615 105.397ZM288.1 40.3128H213.095V57.7542H240.86V143.419H260.346V57.7542H288.112V40.3128H288.1ZM667.419 122.592L650.023 67.3745H629.486L655.576 143.419H679.106L705.352 67.3745H684.815L667.419 122.592ZM915.218 80.1563V67.3742H895.62V143.419H915.218V97.8214C915.218 89.5644 920.515 85.5083 928.771 85.5083H939.497V67.3745H930.336C923.162 67.3742 916.939 71.1172 915.218 80.1563Z" fill="black"/>
<path d="M100 200C155.228 200 200 155.228 200 100C200 44.7715 155.228 0 100 0C44.7715 0 0 44.7715 0 100C0 155.228 44.7715 200 100 200Z" fill="#34E0A1"/>
<path d="M161.765 80.4915L173.832 67.3629H147.072C133.676 58.2119 117.497 52.8824 99.9997 52.8824C82.5246 52.8824 66.3908 58.2234 53.0164 67.3629H26.1896L38.2567 80.4915C30.8602 87.24 26.2233 96.9609 26.2233 107.754C26.2233 128.123 42.7375 144.637 63.1062 144.637C72.7822 144.637 81.5977 140.905 88.1788 134.804L100 147.676L111.821 134.816C118.402 140.916 127.207 144.637 136.883 144.637C157.251 144.637 173.788 128.123 173.788 107.754C173.799 96.9497 169.162 87.2291 161.765 80.4915ZM63.1171 132.715C49.3292 132.715 38.1563 121.542 38.1563 107.754C38.1563 93.9663 49.3295 82.7932 63.1171 82.7932C76.9047 82.7932 88.0779 93.9663 88.0779 107.754C88.0779 121.542 76.9047 132.715 63.1171 132.715ZM100.011 107.028C100.011 90.6032 88.0669 76.5027 72.3015 70.4803C80.8265 66.9159 90.1785 64.9383 99.9997 64.9383C109.821 64.9383 119.184 66.9159 127.709 70.4803C111.955 76.5139 100.011 90.6034 100.011 107.028ZM136.894 132.715C123.106 132.715 111.933 121.542 111.933 107.754C111.933 93.9663 123.106 82.7932 136.894 82.7932C150.682 82.7932 161.855 93.9663 161.855 107.754C161.855 121.542 150.681 132.715 136.894 132.715ZM136.894 94.659C129.665 94.659 123.81 100.514 123.81 107.743C123.81 114.972 129.665 120.827 136.894 120.827C144.123 120.827 149.978 114.972 149.978 107.743C149.977 100.525 144.123 94.659 136.894 94.659ZM76.2008 107.754C76.2008 114.983 70.346 120.838 63.1171 120.838C55.8882 120.838 50.0334 114.983 50.0334 107.754C50.0334 100.525 55.8882 94.6702 63.1171 94.6702C70.346 94.659 76.2008 100.525 76.2008 107.754Z" fill="black"/>
</svg>
